Simulation
nRows=20
nColumns=15
endheader
time  TH_x TH_y TH_z SC_y  SC_z  SC_x  AC_y  AC_z  AC_x  GH_y  GH_z  GH_yy  EL_x  PS_y
0.0  0.000000  0.000000  0.000000  -30.537290746733632  -0.5885600878721587  67.05480698163836  33.607872242417784  -44.31214655497544  -56.18715504227728  37.905041843984904  -0.6302056723652495  -9.418871258013828  22.962184041611415  0.000000
0.031  0.000000  0.000000  0.000000  -30.52497151157959  -0.4641276502161236  67.1669439273344  33.675002947222396  -44.15306695107266  -56.49310950528863  37.86873699810262  -0.7785665277282702  -9.455739238663247  22.906323826994402  0.000000
0.062  0.000000  0.000000  0.000000  -30.468632348874138  -0.44830362764734205  67.33319050362518  33.56508106296987  -43.963103188836506  -56.78179706215125  37.88244094591175  -0.9687994507529238  -9.442064726117888  22.751368737689393  0.000000
0.093  0.000000  0.000000  0.000000  -30.395979369603552  -0.5039453422001517  67.53445458626706  33.332049776278026  -43.80258053651311  -57.0591625420125  37.912129733471204  -1.1158605441264058  -9.413024633517013  22.606060006578016  0.000000
0.124  0.000000  0.000000  0.000000  -30.343014495986623  -0.6163159419840503  67.74872037851135  33.05882153194184  -43.73913136154686  -57.32793400959992  37.92025803781932  -1.1341010658398754  -9.408781109156934  22.50580475855512  0.000000
0.155  0.000000  0.000000  0.000000  -30.316158936187  -0.7397899484375879  67.94675538547568  32.80794824602021  -43.81603433592114  -57.57994123906042  37.87298138193142  -0.965287840818322  -9.469031957594835  22.426197362186134  0.000000
0.186  0.000000  0.000000  0.000000  -30.33848738859251  -0.8325976212021571  68.1003563395966  32.62627115321764  -43.984622974180304  -57.79925912817559  37.774922873053434  -0.5913550519210098  -9.594249721601452  22.356323799032523  0.000000
0.217  0.000000  0.000000  0.000000  -30.419927816191894  -0.8972524482987061  68.18990065290872  32.51067870634953  -44.1295139212439  -57.959328749906625  37.63333740468511  -0.034511357863629806  -9.767861871643403  22.234241164224894  0.000000
0.248  0.000000  0.000000  0.000000  -30.545755828901978  -0.9633481532672677  68.22752506342721  32.44976850130139  -44.21387946679864  -58.064657549748375  37.42667192452204  0.6905738023864867  -9.992404838369414  22.038169835039035  0.000000
0.279  0.000000  0.000000  0.000000  -30.6910181761051  -1.0315403824896623  68.24285163292804  32.432687926744265  -44.26318794615124  -58.12885329081877  37.14741220051359  1.5539723365949258  -10.266836661618601  21.793593023862037  0.000000
0.31  0.000000  0.000000  0.000000  -30.832384699678517  -1.0857404791648795  68.23957682761042  32.45857430359549  -44.28847916750279  -58.14721658882151  36.80373961834398  2.5142925911945944  -10.582896464117148  21.554319752639152  0.000000
0.34099999999999997  0.000000  0.000000  0.000000  -30.952027080725646  -1.115064874170683  68.20260880244288  32.539291053412846  -44.295562077629015  -58.09795932990299  36.407878343159034  3.5468183278438907  -10.928741756613883  21.367735630981294  0.000000
0.372  0.000000  0.000000  0.000000  -31.053427701568594  -1.129542201601919  68.12388739220401  32.686407424607374  -44.28247996504084  -57.95166447945144  35.9622972561688  4.6392716417078566  -11.299620030764572  21.25197534305998  0.000000
0.403  0.000000  0.000000  0.000000  -31.15845471563044  -1.149797085116436  68.01170489468161  32.903500610066175  -44.26260126980768  -57.68566264772772  35.45135895151526  5.7932779730958  -11.70325737859111  21.1923145505067  0.000000
0.434  0.000000  0.000000  0.000000  -31.28147209126889  -1.185888381477971  67.89005773754276  33.1841531316997  -44.26748426469406  -57.301078345408094  34.84880578697281  7.010938426215356  -12.151167258477644  21.17364866439937  0.000000
0.46499999999999997  0.000000  0.000000  0.000000  -31.418395980876337  -1.2305574077124037  67.78783625705915  33.52101549401402  -44.32331541314217  -56.8255108911071  34.146538569597105  8.290563547314333  -12.62888924388057  21.197871983858047  0.000000
0.496  0.000000  0.000000  0.000000  -31.54317143787804  -1.2660417781295072  67.71544528868003  33.908727304711135  -44.41771494573119  -56.29595782578305  33.36356093883998  9.626075210493118  -13.090111162628528  21.27412474334502  0.000000
0.527  0.000000  0.000000  0.000000  -31.63088358093625  -1.2762729504249932  67.66332509041149  34.335406160293196  -44.501655092288786  -55.73804149362876  32.53319802951335  11.007188502440492  -13.479885401995565  21.386243132919358  0.000000
0.558  0.000000  0.000000  0.000000  -31.674173993204  -1.2534865492914964  67.61388218934468  34.79137758413953  -44.533463278868524  -55.16516064230864  31.68618075796125  12.434439975494692  -13.766166625156334  21.501634033971744  0.000000
0.589  0.000000  0.000000  0.000000  -31.679415250333367  -1.1952124545520781  67.55317984540565  35.27282524826921  -44.49020362576471  -54.581633015415136  30.849530717906145  13.912562312251847  -13.946397995695241  21.59610436168634  0.000000
